<?xml version="1.0" standalone="no"?>
<!DOCTYPE svg PUBLIC "-//W3C//DTD SVG 20010904//EN"
 "http://www.w3.org/TR/2001/REC-SVG-20010904/DTD/svg10.dtd">
<svg version="1.0" xmlns="http://www.w3.org/2000/svg"
 width="366.000000pt" height="366.000000pt" viewBox="0 0 366.000000 366.000000"
 preserveAspectRatio="xMidYMid meet">
<metadata>
Created by potrace 1.14, written by Peter Selinger 2001-2017
</metadata>
<g transform="translate(0.000000,366.000000) scale(0.100000,-0.100000)"
fill="#000000" stroke="none">
<path d="M1705 3297 c-58 -19 -53 -17 -710 -385 -655 -368 -683 -387 -737
-502 -14 -30 -77 -246 -139 -480 -109 -411 -113 -428 -114 -530 0 -101 1 -108
37 -183 66 -137 62 -135 863 -596 395 -228 742 -423 769 -435 70 -28 220 -29
291 -2 74 28 1451 822 1515 874 114 92 163 195 164 342 0 90 -6 118 -112 520
-61 234 -124 452 -139 485 -56 120 -79 136 -741 508 -331 186 -627 350 -658
364 -47 21 -76 27 -153 30 -62 2 -110 -2 -136 -10z m210 -175 c80 -29 1225
-679 1268 -720 21 -20 45 -50 54 -66 20 -38 243 -892 243 -931 0 -17 -7 -55
-15 -83 -31 -105 -42 -112 -821 -561 -769 -442 -772 -444 -873 -422 -66 14
-1463 816 -1521 873 -44 43 -80 129 -80 191 0 66 222 897 254 951 14 25 45 58
69 74 83 57 1193 677 1242 694 64 22 117 22 180 0z"/>
<path d="M1700 2757 c-57 -24 -990 -558 -1024 -586 -50 -42 -54 -122 -7 -167
36 -34 1000 -589 1056 -609 59 -20 137 -19 200 3 75 26 1014 569 1053 608 24
25 32 43 32 69 0 75 2 74 -535 384 -278 161 -526 299 -552 307 -70 21 -159 17
-223 -9z"/>
</g>
</svg>
